<?xml version="1.0" encoding="UTF-8"?><svg id="Layer_1" xmlns="http://www.w3.org/2000/svg" xmlns:xlink="http://www.w3.org/1999/xlink" viewBox="0 0 119 56"><defs><style>.cls-1{fill:#2c2666;}.cls-2{fill:none;}.cls-3{clip-path:url(#clippath-1);}.cls-4{fill:#31b296;}.cls-5{fill:#e6327d;}.cls-6{clip-path:url(#clippath);}</style><clipPath id="clippath"><rect class="cls-2" x="-2" y="1.4" width="121" height="51.91"/></clipPath><clipPath id="clippath-1"><rect class="cls-2" x="3.33" y="1.32" width="115.66" height="54.28"/></clipPath></defs><g class="cls-6"><g class="cls-3"><path class="cls-1" d="M21.17,26.08c.19-1,.41-1.82.65-2.48.24-.65.59-1.25,1.04-1.77.46-.53,1.08-.95,1.85-1.26l-4.5-6.36h5.11l4.02,5.67c.55-.3.92-.69,1.11-1.19.19-.5.36-1.25.5-2.27l.29-2.21h4.47c-.11.72-.25,1.55-.42,2.49-.19,1.07-.43,1.97-.71,2.7-.28.73-.69,1.36-1.23,1.88-.54.53-1.26.94-2.16,1.23l4.9,6.89h-5.11l-4.31-6.06c-.35.31-.59.67-.7,1.08-.11.41-.25,1.07-.41,1.99-.18,1.01-.33,2.01-.45,2.99h-4.58c.16-.9.37-2.01.63-3.32"/><path class="cls-1" d="M37.42,25.67h7.14v-5.56c0-1.44-.65-2.16-1.96-2.16h-5.05v-3.74h6.19c1.13,0,2.1.25,2.9.75.8.5,1.4,1.17,1.79,2.02.16.37.28.8.37,1.29.09.49.13,1.18.13,2.06v5.34h2.38v3.74h-13.89v-3.74Z"/><polygon class="cls-1" points="52.77 17.95 51.18 17.95 51.18 14.21 57.13 14.21 57.13 24.17 52.77 24.17 52.77 17.95"/><path class="cls-1" d="M63.83,28.74c-1.32-.7-2.35-1.72-3.08-3.04-.73-1.33-1.1-2.89-1.1-4.68v-6.81h4.13v6.17c0,.52.04.96.11,1.33.95-.2,1.65-.63,2.09-1.27.44-.65.66-1.55.66-2.71v-3.51h4.02v3.68c0,1.88-.45,3.34-1.35,4.39-.9,1.04-2.34,1.78-4.31,2.2.41.54.91.94,1.52,1.22.61.28,1.27.42,2,.42.99,0,1.86-.25,2.62-.75.76-.5,1.34-1.2,1.76-2.1.41-.9.62-1.96.62-3.15v-5.89h4.13v6.36c0,1.81-.38,3.41-1.15,4.8-.77,1.39-1.85,2.48-3.25,3.25-1.4.77-3.01,1.16-4.83,1.16s-3.26-.35-4.58-1.05"/><path class="cls-1" d="M9.31,40.16c0-.91-.18-1.62-.54-2.11-.36-.5-.96-.75-1.79-.75h-3.64v-.99h3.7c1.28,0,2.21.46,2.79,1.37.33.58.5,1.34.5,2.3v6.67h-1.01v-6.49Z"/><path class="cls-1" d="M16.99,46.81v-1.01c.34.08.71.12,1.09.12,1.17,0,2.07-.38,2.68-1.14.61-.76.92-1.86.92-3.29s-.28-2.51-.85-3.3c-.57-.79-1.35-1.19-2.36-1.19-.77,0-1.42.27-1.97.81-.55.54-.97,1.32-1.26,2.36-.22.81-.4,1.75-.53,2.82-.13,1.08-.27,2.34-.42,3.81h-.99c.32-3.22.66-5.49,1.03-6.81l-2.04-3.67h1.23l1.33,2.38c.37-.83.88-1.48,1.52-1.93.65-.46,1.39-.68,2.24-.68,1.23,0,2.21.45,2.95,1.36.74.91,1.11,2.21,1.11,3.9s-.41,3.1-1.22,4.09c-.81.99-1.95,1.49-3.42,1.49-.34,0-.69-.03-1.05-.1"/><polygon class="cls-1" points="25.93 37.3 24.66 37.3 24.66 36.32 26.94 36.32 26.94 46.65 25.93 46.65 25.93 37.3"/><path class="cls-1" d="M40.82,36.32v4.47c0,1.21-.23,2.28-.7,3.2-.47.93-1.13,1.65-1.99,2.16-.86.51-1.85.77-2.97.77-1.04,0-1.97-.23-2.78-.68-.81-.45-1.44-1.09-1.89-1.92-.45-.83-.67-1.82-.67-2.96v-5.04h.99v4.92c0,.55.06,1.06.18,1.53,1.37-.2,2.36-.59,2.95-1.17.59-.58.89-1.42.89-2.52v-2.76h.99v2.7c0,1.37-.36,2.41-1.09,3.13-.73.72-1.89,1.18-3.49,1.38.34.78.86,1.38,1.55,1.8.69.42,1.49.63,2.42.63s1.74-.21,2.44-.62c.7-.42,1.24-1,1.62-1.76.38-.76.57-1.64.57-2.63v-4.63h.99Z"/><path class="cls-1" d="M50.74,40.16c0-.91-.18-1.62-.54-2.12-.36-.5-.96-.75-1.79-.75h-4.81v-.99h4.87c1.28,0,2.21.46,2.79,1.37.33.58.5,1.34.5,2.3v6.67h-1.01v-6.49ZM43.59,41.11h1.03v5.54h-1.03v-5.54Z"/><polygon class="cls-1" points="64.65 37.28 58.29 37.28 58.29 32.47 59.3 32.47 59.3 36.32 65.78 36.32 65.78 37.16 61.88 46.65 60.79 46.65 64.65 37.28"/><path class="cls-1" d="M67.48,46.71v-.97c.24.07.51.1.83.1.47,0,.83-.13,1.08-.38.24-.26.37-.75.37-1.47v-6.69h-2.28v-.99h6.87c1.28,0,2.21.46,2.79,1.37.33.58.5,1.34.5,2.3v6.67h-.99v-6.49c0-.91-.18-1.62-.54-2.12-.36-.5-.96-.74-1.79-.74h-3.56v6.99c0,.94-.22,1.6-.65,1.96-.44.37-1,.55-1.7.55-.3,0-.61-.03-.91-.1"/><path class="cls-4" d="M113.05,20.09h4c0-9.28-7.52-16.8-16.8-16.8s-16.8,7.52-16.8,16.8,7.52,16.8,16.8,16.8v-4c-7.07,0-12.81-5.73-12.81-12.81s5.73-12.81,12.81-12.81,12.81,5.73,12.81,12.81"/><path class="cls-5" d="M87.43,36.86h-4c0,9.28,7.52,16.8,16.8,16.8s16.8-7.52,16.8-16.8-7.52-16.8-16.8-16.8v4c7.07,0,12.81,5.73,12.81,12.81s-5.73,12.81-12.81,12.81-12.81-5.73-12.81-12.81"/></g></g></svg>